# xmcd CD database file generated by OrangeCD 5.2
#
# Track frame offsets:
#	150
#	15617
#	30137
#	45460
#	61352
#	73745
#	85585
#	102797
#	117085
#	131940
#	151247
#	166415
#
# Disc length: 2406 seconds
#
# Revision: 0
# Processed by: cddbd v1.5PL3 Copyright (c) Steve Scherf et al.
# Submitted via: OrangeCD 5.2
#
DISCID=8d09640c
DTITLE=Ciara Lynn - Why Shouldn't I
DYEAR=2002
DGENRE=Pop
TTITLE0=Lost
TTITLE1=You're Enough
TTITLE2=Why Shouldn't I
TTITLE3=Raining on the Roses
TTITLE4=Don't Underestimate My Heart
TTITLE5=What Kind of Love is That
TTITLE6=Before
TTITLE7=Right There
TTITLE8=Anybody
TTITLE9=If You Believe
TTITLE10=More Than I Need to Know
TTITLE11=Rosalee
EXTD=
EXTT0=
EXTT1=
EXTT2=
EXTT3=
EXTT4=
EXTT5=
EXTT6=
EXTT7=
EXTT8=
EXTT9=
EXTT10=
EXTT11=
PLAYORDER=
